<?xml version="1.0" encoding="utf-8"?>
<!-- Generator: Adobe Illustrator 21.1.0, SVG Export Plug-In . SVG Version: 6.00 Build 0)  -->
<svg version="1.1" id="Layer_1" xmlns="http://www.w3.org/2000/svg" xmlns:xlink="http://www.w3.org/1999/xlink" x="0px" y="0px"
	 viewBox="0 0 118 118" style="enable-background:new 0 0 118 118;" xml:space="preserve">
<style type="text/css">
	.st0{fill:#12B779;}
</style>
<g>
	<path class="st0" d="M58.7,118c-32.5,0-59-26.5-59-59s26.5-59,59-59s59,26.5,59,59S91.2,118,58.7,118z M58.7,2
		c-31.4,0-57,25.6-57,57s25.6,57,57,57s57-25.6,57-57S90.1,2,58.7,2z"/>
</g>
<g>
	<g>
		<path class="st0" d="M30.8,71.3c0.2,0.8,0.5,1.5,0.9,2.3l1.9-0.9c-0.3-0.7-0.6-1.3-0.8-2L30.8,71.3z M35.2,52.9
			c-3.4,3.4-5.2,8-5.2,12.8c0,1.1,0.1,2.2,0.3,3.2l2.1-0.4c-0.2-0.9-0.2-1.9-0.2-2.8c0-4.3,1.6-8.3,4.6-11.3l0,0l-0.7-0.8L35.2,52.9
			z M56.4,48.4l-1.5-1.5l-1.5,1.5l1.5,1.5L56.4,48.4z M57.9,53l1.5-1.5l-1.5-1.5l-1.5,1.5L57.9,53z M62.7,59.5l2-0.8
			c-0.3-0.7-0.6-1.4-1-2l-1.8,1.1C62.2,58.3,62.5,58.9,62.7,59.5z M62.4,54.7c-0.5-0.6-1-1.2-1.5-1.7l-1.5,1.5
			c0.5,0.5,0.9,1,1.3,1.5L62.4,54.7z M49.1,70.9H47v2.2c-1.8,0-3.2,1.5-3.2,3.2c0,1.8,1.4,3.2,3.2,3.2h2.1c0.6,0,1.1,0.5,1.1,1.1
			c0,0.6-0.5,1.1-1.1,1.1h-3.2v-1.1h-2.1v3.2H47V86h2.1v-2.2c1.8,0,3.2-1.5,3.2-3.2c0-1.8-1.4-3.2-3.2-3.2H47
			c-0.6,0-1.1-0.5-1.1-1.1c0-0.6,0.5-1.1,1.1-1.1h3.2v1.1h2.1v-3.2h-3.2V70.9z M89.5,49.4c0,2.7-1.5,5.5-4.3,8.2
			c-4,3.8-9.2,6.1-14.9,6.7c-0.3-5.4-2.6-10.5-6.4-14.4l-8-8.1l5.9-6v-0.4c0-2.4-1.8-4.4-4.1-4.7l-2-0.2l1-3.4l-6-1.5l-2.7,3.7
			l-1.7-2.6l-7.2,1.5l0.8,2.4l-1.7,0.2c-2.3,0.3-4.1,2.3-4.1,4.7v0.4l5.9,6l-8,8.1c-4.2,4.2-6.5,9.9-6.5,15.9
			c0,7.5,3.7,14.5,9.8,18.6c2.2,4.8,7,8.1,12.5,8.1h43.6V49.4H89.5z M57.5,32.8c1.1,0.1,2,1,2.2,2.2L54,40.7h-1.3l2.5-8.3L57.5,32.8
			z M45.4,29l2.6,3.9l3.7-5l2.5,0.6l-3.7,12.2h-4.8l-3.6-11L45.4,29z M36.3,34.9c0.2-1.1,1.1-2,2.2-2.2l2.1-0.3l2.7,8.2h-1.3
			L36.3,34.9z M34.4,80.8c-4.2-3.8-6.6-9.2-6.6-15c0-5.4,2.1-10.5,5.9-14.3l8.4-8.5H54l8.4,8.5c3.5,3.5,5.5,8.1,5.8,13
			c-0.2,0-0.4,0-0.7,0H48c-7.6,0-13.8,6.3-13.8,14C34.2,79.3,34.3,80,34.4,80.8z M36.3,78.5c0-6.5,5.3-11.9,11.7-11.9
			c6.5,0,11.7,5.3,11.7,11.9c0,6.5-5.3,11.9-11.7,11.9C41.6,90.3,36.3,85,36.3,78.5z M64,90.3h-8.6c3.9-2.5,6.5-6.9,6.5-11.9
			c0-5-2.6-9.4-6.5-11.9H64V90.3z M70.4,90.3h-4.3V66.6h1.4c1,0,1.9,0,2.8-0.1V90.3z M76.8,90.3h-4.3V66.2c1.5-0.3,2.9-0.6,4.3-1.1
			V90.3z M83.2,90.3h-4.3v-26c1.5-0.6,2.9-1.4,4.3-2.3V90.3z M89.5,90.3h-4.3v-30c0.5-0.4,0.9-0.8,1.4-1.2c1.2-1.1,2.1-2.2,2.9-3.4
			V90.3z M83.2,31.5V44h2.1V31.5l2.4,2.5l1.5-1.5l-5-5.1l-5,5.1l1.5,1.5L83.2,31.5z M73.6,39v12.5h2.1V39l2.4,2.5l1.5-1.5l-5-5.1
			l-5,5.1l1.5,1.5L73.6,39z"/>
	</g>
</g>
</svg>
