<?xml version="1.0" encoding="utf-8"?>
<!-- Generator: Adobe Illustrator 21.1.0, SVG Export Plug-In . SVG Version: 6.00 Build 0)  -->
<svg version="1.1" id="Layer_1" xmlns="http://www.w3.org/2000/svg" xmlns:xlink="http://www.w3.org/1999/xlink" x="0px" y="0px"
	 viewBox="0 0 118 118" style="enable-background:new 0 0 118 118;" xml:space="preserve">
<style type="text/css">
	.st0{fill:#12B779;}
</style>
<g>
	<path class="st0" d="M59,118C26.5,118,0,91.5,0,59S26.5,0,59,0s59,26.5,59,59S91.5,118,59,118z M59,2C27.6,2,2,27.6,2,59
		s25.6,57,57,57s57-25.6,57-57S90.4,2,59,2z"/>
</g>
<g>
	<g>
		<path class="st0" d="M82.7,78.8c2.1,0,3.8-1.7,3.8-3.8V36.9c0-3-2.4-5.4-5.4-5.4H36.9c-3,0-5.4,2.4-5.4,5.4v38.2
			c0,2.1,1.7,3.8,3.8,3.8h1.2v5.5h-3.9c-0.6,0-1.1,0.5-1.1,1.1c0,0.6,0.5,1.1,1.1,1.1h52.9c0.6,0,1.1-0.5,1.1-1.1
			c0-0.6-0.5-1.1-1.1-1.1h-3.9v-5.5H82.7z M33.6,36.9c0-1.8,1.4-3.2,3.2-3.2h44.3c1.8,0,3.2,1.4,3.2,3.2v2.4H33.8c0,0-0.1,0-0.1,0
			V36.9z M43.3,84.4h-4.7v-9.7h4.7V84.4z M55.3,84.4h-4.7V62.8h4.7V84.4z M67.4,84.4h-4.7V71.9h4.7V84.4z M80.5,59.1h-6.9
			c-0.6,0-1.1,0.5-1.1,1.1v5.4c0,0.6,0.5,1.1,1.1,1.1c0.6,0,1.1-0.5,1.1-1.1v-4.4h4.7v23.1h-4.7V72.8c0-0.6-0.5-1.1-1.1-1.1
			c-0.6,0-1.1,0.5-1.1,1.1v11.6h-3V70.8c0-0.6-0.5-1.1-1.1-1.1h-6.9c-0.6,0-1.1,0.5-1.1,1.1v13.5h-3V61.7c0-0.6-0.5-1.1-1.1-1.1
			h-6.9c-0.6,0-1.1,0.5-1.1,1.1v22.6h-3V73.6c0-0.6-0.5-1.1-1.1-1.1h-6.9c-0.6,0-1.1,0.5-1.1,1.1v3.1h-1.2c-0.9,0-1.6-0.7-1.6-1.6
			V41.4c0,0,0.1,0,0.1,0h50.6v33.7c0,0.9-0.7,1.6-1.6,1.6h-1.2V60.1C81.6,59.5,81.1,59.1,80.5,59.1z M55.4,37.5h24.3
			c0.6,0,1.1-0.5,1.1-1.1c0-0.6-0.5-1.1-1.1-1.1H55.4c-0.6,0-1.1,0.5-1.1,1.1C54.3,37,54.8,37.5,55.4,37.5z M42.7,37.5
			c0.3,0,0.6-0.1,0.8-0.3c0.2-0.2,0.3-0.5,0.3-0.8c0-0.3-0.1-0.6-0.3-0.8c-0.2-0.2-0.5-0.3-0.8-0.3c-0.3,0-0.6,0.1-0.8,0.3
			c-0.2,0.2-0.3,0.5-0.3,0.8c0,0.3,0.1,0.6,0.3,0.8C42.1,37.4,42.4,37.5,42.7,37.5z M38.4,37.5c0.3,0,0.6-0.1,0.8-0.3
			c0.2-0.2,0.3-0.5,0.3-0.8c0-0.3-0.1-0.6-0.3-0.8c-0.2-0.2-0.5-0.3-0.8-0.3c-0.3,0-0.6,0.1-0.8,0.3c-0.2,0.2-0.3,0.5-0.3,0.8
			c0,0.3,0.1,0.6,0.3,0.8C37.8,37.4,38.1,37.5,38.4,37.5z M47,37.5c0.3,0,0.6-0.1,0.8-0.3c0.2-0.2,0.3-0.5,0.3-0.8
			c0-0.3-0.1-0.6-0.3-0.8c-0.2-0.2-0.5-0.3-0.8-0.3c-0.3,0-0.6,0.1-0.8,0.3c-0.2,0.2-0.3,0.5-0.3,0.8c0,0.3,0.1,0.6,0.3,0.8
			C46.4,37.4,46.7,37.5,47,37.5z M72.9,70.1c0.2,0.2,0.5,0.3,0.8,0.3c0.3,0,0.6-0.1,0.8-0.3c0.2-0.2,0.3-0.5,0.3-0.8
			c0-0.3-0.1-0.6-0.3-0.8c-0.2-0.2-0.5-0.3-0.8-0.3c-0.3,0-0.6,0.1-0.8,0.3c-0.2,0.2-0.3,0.5-0.3,0.8C72.5,69.7,72.7,69.9,72.9,70.1
			z M77,46.1c-2.1,0-3.9,1.7-3.9,3.9c0,0.8,0.3,1.6,0.7,2.3l-7.1,7.1c-0.6-0.3-1.2-0.5-1.9-0.5c-0.6,0-1.2,0.1-1.7,0.4l-7.5-7.5
			c0.3-0.6,0.5-1.2,0.5-1.9c0-2.1-1.7-3.9-3.9-3.9c-2.1,0-3.9,1.7-3.9,3.9c0,0.7,0.2,1.4,0.6,2l-6.3,6.3c-0.6-0.3-1.2-0.5-1.9-0.5
			c-2.1,0-3.9,1.7-3.9,3.9c0,2.1,1.7,3.9,3.9,3.9c2.1,0,3.9-1.7,3.9-3.9c0-0.7-0.2-1.3-0.5-1.9l6.4-6.4c0.5,0.2,1.1,0.4,1.7,0.4
			c0.7,0,1.3-0.2,1.9-0.5l7.4,7.4c-0.4,0.6-0.6,1.3-0.6,2c0,2.1,1.7,3.9,3.9,3.9c2.1,0,3.9-1.7,3.9-3.9c0-0.7-0.2-1.3-0.5-1.9
			l7.3-7.3c0.4,0.2,0.9,0.3,1.4,0.3c2.1,0,3.9-1.7,3.9-3.9C80.9,47.8,79.2,46.1,77,46.1z M40.9,63.5c-0.9,0-1.7-0.8-1.7-1.7
			c0-0.9,0.8-1.7,1.7-1.7s1.7,0.8,1.7,1.7C42.6,62.7,41.8,63.5,40.9,63.5z M52.4,51.7c-0.9,0-1.7-0.8-1.7-1.7s0.8-1.7,1.7-1.7
			c0.9,0,1.7,0.8,1.7,1.7S53.3,51.7,52.4,51.7z M64.9,64.5c-0.9,0-1.7-0.8-1.7-1.7S64,61,64.9,61c0.9,0,1.7,0.8,1.7,1.7
			S65.9,64.5,64.9,64.5z M77,51.7c-0.9,0-1.7-0.8-1.7-1.7s0.8-1.7,1.7-1.7s1.7,0.8,1.7,1.7S78,51.7,77,51.7z M46.7,47.2
			c0.3,0,0.6-0.1,0.8-0.3c0.2-0.2,0.3-0.5,0.3-0.8c0-0.3-0.1-0.6-0.3-0.8C47.2,45.2,47,45,46.7,45c-0.3,0-0.6,0.1-0.8,0.3
			c-0.2,0.2-0.3,0.5-0.3,0.8c0,0.3,0.1,0.6,0.3,0.8C46.1,47.1,46.4,47.2,46.7,47.2z M37.5,47.2h5.2c0.6,0,1.1-0.5,1.1-1.1
			c0-0.6-0.5-1.1-1.1-1.1h-5.2c-0.6,0-1.1,0.5-1.1,1.1C36.4,46.7,36.9,47.2,37.5,47.2z M42.7,52.3c0.6,0,1.1-0.5,1.1-1.1
			c0-0.6-0.5-1.1-1.1-1.1h-5.2c-0.6,0-1.1,0.5-1.1,1.1c0,0.6,0.5,1.1,1.1,1.1H42.7z"/>
	</g>
</g>
</svg>
