<?xml version="1.0" encoding="utf-8"?>
<!-- Generator: Adobe Illustrator 21.1.0, SVG Export Plug-In . SVG Version: 6.00 Build 0)  -->
<svg version="1.1" id="Layer_1" xmlns="http://www.w3.org/2000/svg" xmlns:xlink="http://www.w3.org/1999/xlink" x="0px" y="0px"
	 viewBox="0 0 118 118" style="enable-background:new 0 0 118 118;" xml:space="preserve">
<style type="text/css">
	.st0{fill:#12B779;}
</style>
<g>
	<path class="st0" d="M59,118.1c-32.5,0-59-26.5-59-59s26.5-59,59-59s59,26.5,59,59S91.5,118.1,59,118.1z M59,2.1
		c-31.4,0-57,25.6-57,57s25.6,57,57,57s57-25.6,57-57S90.4,2.1,59,2.1z"/>
</g>
<g>
	<g>
		<path class="st0" d="M93.8,55.7h-10l10.8-10.8c0.5-0.5,0.5-1.2,0-1.6L72.6,21.2c-0.5-0.5-1.2-0.5-1.6,0L36.5,55.7H24.2
			c-0.6,0-1.2,0.5-1.2,1.2V87c0,0.6,0.5,1.2,1.2,1.2h16.9l4.3,4.3c0.2,0.2,0.5,0.3,0.8,0.3s0.6-0.1,0.8-0.3l4.3-4.3h42.5
			c0.6,0,1.2-0.5,1.2-1.2V56.8C95,56.2,94.5,55.7,93.8,55.7z M71.8,23.6l20.4,20.4L80.6,55.7h-8.9c-0.3-3-1.5-5.7-3.7-7.9
			c-5-5-13.1-5-18.1,0c-2.1,2.1-3.4,4.9-3.7,7.9h-6.5L71.8,23.6z M65.6,55.2c-1.8-1.8-4.8-1.8-6.6,0l-3.3-3.3c0.9-0.9,2.4-0.9,3.3,0
			l1.6-1.6c-0.9-0.9-2-1.4-3.3-1.4c-1.2,0-2.4,0.5-3.3,1.4l0,0l-0.8-0.8l-1.6,1.6l0.8,0.8c-1,1-1.5,2.4-1.3,3.8h-2.5
			c0.3-2.4,1.3-4.5,3-6.2c4.1-4.1,10.7-4.1,14.8,0c1.7,1.7,2.7,3.9,3,6.2H66v0C65.9,55.5,65.7,55.3,65.6,55.2z M56.2,55.7h-2.7
			c-0.2-0.8,0.1-1.6,0.6-2.1L56.2,55.7z M46.2,90l-1.8-1.8h3.7L46.2,90z M92.7,85.9H25.3V58h67.3V85.9z M55.5,75.4h-2.3
			c0,2.6,2.1,4.6,4.6,4.6v1.2h2.3v-1.2c2.6,0,4.6-2.1,4.6-4.6c0-2.6-2.1-4.6-4.6-4.6v-4.6c1.3,0,2.3,1,2.3,2.3h2.3
			c0-2.6-2.1-4.6-4.6-4.6v-1.2h-2.3v1.2c-2.6,0-4.6,2.1-4.6,4.6c0,2.6,2.1,4.6,4.6,4.6v4.6C56.6,77.7,55.5,76.7,55.5,75.4z
			 M60.2,73.1c1.3,0,2.3,1,2.3,2.3c0,1.3-1,2.3-2.3,2.3V73.1z M55.5,68.4c0-1.3,1-2.3,2.3-2.3v4.6C56.6,70.8,55.5,69.7,55.5,68.4z
			 M59,84.7c7,0,12.8-5.7,12.8-12.8c0-7-5.7-12.8-12.8-12.8c-7,0-12.8,5.7-12.8,12.8C46.2,79,52,84.7,59,84.7z M59,61.5
			c5.8,0,10.4,4.7,10.4,10.5c0,5.8-4.7,10.5-10.4,10.5c-5.8,0-10.4-4.7-10.4-10.5C48.6,66.2,53.2,61.5,59,61.5z M90.3,82.4V61.5
			c0-0.6-0.5-1.2-1.2-1.2H75.3v2.3H88v18.6H75.3v2.3h13.9C89.8,83.5,90.3,83,90.3,82.4z M28.8,83.5h13.9v-2.3H30V62.6h12.8v-2.3
			H28.8c-0.6,0-1.2,0.5-1.2,1.2v20.9C27.7,83,28.2,83.5,28.8,83.5z M77.6,76.6h-2.3v2.3h2.3V76.6z M79.9,78.9h2.3v-2.3h-2.3V78.9z
			 M77.6,65h-2.3v2.3h2.3V65z M82.2,65h-2.3v2.3h2.3V65z M72.1,30.6l13.1,13.1l-9,9l1.6,1.6l9.8-9.9c0.5-0.5,0.5-1.2,0-1.6
			L72.9,28.1c-0.4-0.4-1.2-0.4-1.6,0L61.4,38l1.6,1.6L72.1,30.6z M72.9,49.5l1.6,1.6l1.6-1.6l-1.6-1.6L72.9,49.5z M79.5,46.2
			l-1.6-1.6l-1.6,1.6l1.6,1.6L79.5,46.2z M64.7,41.3l1.6,1.6l1.6-1.6l-1.6-1.6L64.7,41.3z M68,38l1.6,1.6l1.6-1.6l-1.6-1.6L68,38z
			 M38.1,65h-2.3v2.3h2.3V65z M40.4,67.3h2.3V65h-2.3V67.3z M35.8,78.9h2.3v-2.3h-2.3V78.9z M40.4,78.9h2.3v-2.3h-2.3V78.9z"/>
	</g>
</g>
</svg>
