<?xml version="1.0" encoding="utf-8"?>
<!-- Generator: Adobe Illustrator 21.1.0, SVG Export Plug-In . SVG Version: 6.00 Build 0)  -->
<svg version="1.1" id="Layer_1" xmlns="http://www.w3.org/2000/svg" xmlns:xlink="http://www.w3.org/1999/xlink" x="0px" y="0px"
	 viewBox="0 0 118 118" style="enable-background:new 0 0 118 118;" xml:space="preserve">
<style type="text/css">
	.st0{fill:#12B779;}
</style>
<g>
	<path class="st0" d="M59.1,118c-32.5,0-59-26.5-59-59s26.5-59,59-59s59,26.5,59,59S91.7,118,59.1,118z M59.1,2
		c-31.4,0-57,25.6-57,57s25.6,57,57,57s57-25.6,57-57S90.6,2,59.1,2z"/>
</g>
<g>
	<g>
		<path class="st0" d="M59.1,31.8c0.6,0,1.1-0.5,1.1-1.1v-4.5c0-0.6-0.5-1.1-1.1-1.1c-0.6,0-1.1,0.5-1.1,1.1v4.5
			C58,31.3,58.5,31.8,59.1,31.8z M45,30.2l2.3,3.9c0.3,0.5,1,0.7,1.6,0.4c0.6-0.3,0.7-1,0.4-1.5c0,0,0,0,0,0l-2.3-3.9
			c-0.3-0.5-1-0.7-1.6-0.4C44.8,28.9,44.6,29.6,45,30.2C45,30.2,45,30.2,45,30.2z M35.7,40.1C35.7,40.1,35.7,40.1,35.7,40.1l4,2.3
			c0.5,0.3,1.2,0.1,1.6-0.4s0.1-1.2-0.4-1.6c0,0,0,0,0,0l-4-2.3c-0.5-0.3-1.2-0.1-1.6,0.4C35,39.1,35.2,39.8,35.7,40.1z M38.5,52.2
			c0-0.6-0.5-1.1-1.1-1.1h-4.6c-0.6,0-1.1,0.5-1.1,1.1c0,0.6,0.5,1.1,1.1,1.1h4.6C38,53.3,38.5,52.8,38.5,52.2z M39.7,62
			C39.7,62,39.7,62,39.7,62l-4,2.3c-0.6,0.3-0.7,1-0.4,1.5c0.3,0.5,1,0.7,1.6,0.4c0,0,0,0,0,0l4-2.3c0.6-0.3,0.7-1,0.4-1.5
			C41,61.9,40.3,61.7,39.7,62z M82.5,64.3C82.5,64.3,82.5,64.3,82.5,64.3l-4-2.3c-0.5-0.3-1.2-0.1-1.6,0.4c-0.3,0.5-0.1,1.2,0.4,1.6
			c0,0,0,0,0,0l4,2.3c0.5,0.3,1.2,0.1,1.6-0.4C83.3,65.3,83.1,64.6,82.5,64.3z M85.5,51.1h-4.6c-0.6,0-1.1,0.5-1.1,1.1
			c0,0.6,0.5,1.1,1.1,1.1h4.6c0.6,0,1.1-0.5,1.1-1.1C86.6,51.6,86.1,51.1,85.5,51.1z M78,42.6c0.2,0,0.4-0.1,0.6-0.2l4-2.3
			c0.6-0.3,0.7-1,0.4-1.5c-0.3-0.5-1-0.7-1.6-0.4c0,0,0,0,0,0l-4,2.3c-0.5,0.3-0.7,1-0.4,1.5C77.2,42.4,77.6,42.6,78,42.6z
			 M69.4,34.5C69.4,34.5,69.4,34.5,69.4,34.5c0.5,0.3,1.3,0.1,1.6-0.4l0,0l2.3-3.9c0.3-0.5,0.1-1.2-0.4-1.6
			c-0.5-0.3-1.2-0.1-1.6,0.4c0,0,0,0,0,0L69,33C68.7,33.5,68.9,34.2,69.4,34.5z M61.4,70.3c0.6,0,1.1-0.5,1.1-1.1V56.7h2.3
			c2.5,0,4.6-2,4.6-4.5c0-2.5-2.1-4.5-4.6-4.5c-2.5,0-4.6,2-4.6,4.5v2.3H58v-2.3c0-2.5-2.1-4.5-4.6-4.5c-2.5,0-4.6,2-4.6,4.5
			c0,2.5,2.1,4.5,4.6,4.5h2.3v12.5c0,0.6,0.5,1.1,1.1,1.1c0.6,0,1.1-0.5,1.1-1.1V56.7h2.3v12.5C60.3,69.8,60.8,70.3,61.4,70.3z
			 M62.6,52.2c0-1.3,1-2.3,2.3-2.3c1.3,0,2.3,1,2.3,2.3c0,1.3-1,2.3-2.3,2.3h-2.3V52.2z M55.7,54.5h-2.3c-1.3,0-2.3-1-2.3-2.3
			c0-1.3,1-2.3,2.3-2.3c1.3,0,2.3,1,2.3,2.3V54.5z M60,34.1c-10.1-0.5-18.7,7.2-19.2,17.2c-0.3,5.7,2.2,11.2,6.7,14.9
			c0.8,0.6,1.3,1.6,1.3,2.6v2.7c0,1.4,0.9,2.7,2.3,3.2V76c0,0.8,0.3,1.6,0.9,2.3c-1.2,1.3-1.2,3.3,0,4.5c-1.3,1.4-1.2,3.5,0.2,4.8
			c0.6,0.6,1.5,0.9,2.3,0.9c0.6,0,1.1-0.5,1.1-1.1c0-0.2-0.1-0.5-0.2-0.7c0-0.1-0.1-0.1-0.1-0.2c-0.1-0.1-0.2-0.2-0.3-0.2
			c0,0-0.1,0-0.1,0c-0.1,0-0.2-0.1-0.4-0.1c0,0,0,0,0,0c-0.6,0-1.1-0.5-1.1-1.1c0-0.6,0.5-1.1,1.1-1.1h4.6c0.6,0,1.1-0.5,1.1-1.1
			c0-0.6-0.5-1.1-1.1-1.1h-4.6c-0.6,0-1.1-0.5-1.1-1.1c0-0.6,0.5-1.1,1.1-1.1h4.6c0.6,0,1.1-0.5,1.1-1.1s-0.5-1.1-1.1-1.1h-4.6
			c-0.6,0-1.1-0.5-1.1-1.1v-1.1h5.7c0.6,0,1.1-0.5,1.1-1.1c0-0.6-0.5-1.1-1.1-1.1h-6.9c-0.6,0-1.1-0.5-1.1-1.1v-2.7
			c0-1.7-0.8-3.3-2.1-4.3c-6.8-5.6-7.8-15.6-2.2-22.3c3.2-3.9,8.1-6,13.2-5.8c8.5,0.5,15.1,7.4,15.3,15.7c0,4.8-2.2,9.4-6,12.4
			c-1.3,1.1-2.1,2.7-2.1,4.4v2.5c0,0.6-0.5,1.1-1.1,1.1h-3.4c-0.6,0-1.1,0.5-1.1,1.1c0,0.6,0.5,1.1,1.1,1.1h2.3V76
			c0,0.6-0.5,1.1-1.1,1.1h-1.1c-0.6,0-1.1,0.5-1.1,1.1s0.5,1.1,1.1,1.1h1.1c0.6,0,1.1,0.5,1.1,1.1c0,0.6-0.5,1.1-1.1,1.1h-1.1
			c-0.6,0-1.1,0.5-1.1,1.1c0,0.6,0.5,1.1,1.1,1.1h1.1c0.6,0,1.1,0.5,1.1,1.1c0,0.6-0.5,1.1-1.1,1.1H58c-0.6,0-1.1,0.5-1.1,1.1
			s0.5,1.1,1.1,1.1h4.4c-0.6,1.8-2.6,2.7-4.4,2.1c-0.5-0.2-1-0.5-1.4-0.9c-0.4-0.5-1.1-0.5-1.6-0.1c-0.5,0.4-0.5,1.1-0.1,1.6
			c2.1,2.3,5.7,2.5,8.1,0.5c1-0.9,1.6-2,1.8-3.3c1.8-0.6,2.8-2.4,2.2-4.2c-0.1-0.5-0.4-0.9-0.7-1.3c1.2-1.3,1.2-3.3,0-4.5
			c0.6-0.6,0.9-1.4,0.9-2.3v-1.3c1.4-0.5,2.3-1.8,2.3-3.2v-2.5c0-1,0.4-2,1.2-2.6c4.3-3.5,6.9-8.7,6.8-14.2
			C77.3,42.5,69.7,34.7,60,34.1z"/>
	</g>
</g>
</svg>
