<?xml version="1.0" encoding="utf-8"?>
<!-- Generator: Adobe Illustrator 21.1.0, SVG Export Plug-In . SVG Version: 6.00 Build 0)  -->
<svg version="1.1" id="Layer_1" xmlns="http://www.w3.org/2000/svg" xmlns:xlink="http://www.w3.org/1999/xlink" x="0px" y="0px"
	 viewBox="0 0 118 118" style="enable-background:new 0 0 118 118;" xml:space="preserve">
<style type="text/css">
	.st0{fill:#12B779;}
</style>
<g>
	<path class="st0" d="M59,118C26.5,118,0,91.5,0,59S26.5,0,59,0s59,26.5,59,59S91.5,118,59,118z M59,2C27.6,2,2,27.6,2,59
		s25.6,57,57,57s57-25.6,57-57S90.4,2,59,2z"/>
</g>
<path class="st0" d="M86.9,86.4h-1.1c0.1-0.3,0.1-0.5,0.1-0.8v-1.9c0-1.6-1.3-2.9-2.8-2.9h-1.9l-1.7-20.6h2.7c1.3,0,2.4-1.1,2.4-2.4
	v-1.7c0-1.3-1.1-2.4-2.4-2.4h0c0.1-0.4,0.2-0.8,0.2-1.2c0-1.8-1.4-3.2-3.2-3.2h-1.3c1.6-1.5,2.6-3.6,2.6-5.9c0-4.4-3.5-7.9-7.8-7.9
	c-4.3,0-7.8,3.6-7.8,7.9c0,2.3,1,4.4,2.6,5.9h-1.3c-1.8,0-3.2,1.5-3.2,3.2c0,0.4,0.1,0.8,0.2,1.2h0c-1.3,0-2.4,1.1-2.4,2.4v1.7
	c0,1.3,1.1,2.4,2.4,2.4h2.7l-1.7,20.6h-1.9c-0.7,0-1.3,0.3-1.8,0.7c-0.5-0.4-1.1-0.7-1.8-0.7h-0.6l-2.7-8.2
	c-0.6-1.9-0.9-3.8-0.9-5.8V55.7c1.3-0.4,2.2-1.6,2.2-3.1c0-0.4-0.1-0.8-0.2-1.2h0c1.3,0,2.4-1.1,2.4-2.4v-1.7c0-1.3-1.1-2.4-2.4-2.4
	h0c0.1-0.4,0.2-0.8,0.2-1.2c0-1.4-0.9-2.6-2.2-3.1l1.9-3.8c0.2-0.4,0.3-0.9,0.3-1.4c0-1.7-1.3-3-3-3h-2.6c0.7-0.9,1.1-2,1.1-3.3
	c0-2.9-2.3-5.3-5.2-5.3s-5.2,2.4-5.2,5.3c0,1.2,0.4,2.4,1.1,3.3H40c-1.7,0-3,1.4-3,3c0,0.5,0.1,0.9,0.3,1.4l1.9,3.8
	c-1.3,0.4-2.2,1.6-2.2,3.1c0,0.4,0.1,0.8,0.2,1.2h0c-1.3,0-2.4,1.1-2.4,2.4v1.7c0,1.3,1.1,2.4,2.4,2.4h0c-0.1,0.4-0.2,0.8-0.2,1.2
	c0,1.4,0.9,2.6,2.2,3.1v11.2c0,2-0.3,3.9-0.9,5.8l-2.7,8.2h-0.6c-1.6,0-2.8,1.3-2.8,2.9v1.9c0,0.3,0,0.5,0.1,0.8h-1.1
	c-1.7,0-3.1,1.4-3.1,3.1v1.3c0,1.7,1.4,3.1,3.1,3.1h55.9c1.7,0,3.1-1.4,3.1-3.1v-1.3C90,87.8,88.6,86.4,86.9,86.4L86.9,86.4z
	 M66.8,43.5c0-3.2,2.6-5.9,5.8-5.9c3.2,0,5.8,2.6,5.8,5.9c0,3.2-2.6,5.9-5.8,5.9C69.4,49.4,66.8,46.8,66.8,43.5z M62.7,57.9v-1.7
	c0-0.2,0.2-0.4,0.4-0.4h7.2c0.6,0,1-0.5,1-1c0-0.6-0.5-1-1-1h-4.2c0,0,0,0,0,0c-0.6,0-1.2-0.5-1.2-1.2c0-0.7,0.5-1.2,1.2-1.2h13.1
	c0.6,0,1.2,0.5,1.2,1.2c0,0.7-0.5,1.2-1.2,1.2c0,0,0,0,0,0H75c-0.6,0-1,0.5-1,1c0,0.6,0.5,1,1,1h7.2c0.2,0,0.4,0.2,0.4,0.4v1.7
	c0,0.2-0.2,0.4-0.4,0.4H63.1C62.9,58.3,62.7,58.1,62.7,57.9L62.7,57.9z M67.8,60.3h9.6l1.7,20.6H66.1L67.8,60.3z M43.5,29.3
	c0-1.8,1.4-3.3,3.2-3.3c1.8,0,3.2,1.5,3.2,3.3s-1.4,3.3-3.2,3.3C45,32.6,43.5,31.1,43.5,29.3z M39,35.6c0-0.5,0.4-1,1-1h13.5
	c0.5,0,1,0.4,1,1c0,0.2,0,0.3-0.1,0.4l-2.2,4.5H41.4L39.1,36C39.1,35.9,39,35.8,39,35.6z M39,43.8c0-0.7,0.5-1.2,1.2-1.2h13.1
	c0.6,0,1.2,0.5,1.2,1.2c0,0.7-0.5,1.2-1.2,1.2H40.2C39.5,45,39,44.5,39,43.8z M36.8,49.1v-1.7c0-0.2,0.2-0.4,0.4-0.4h19.1
	c0.2,0,0.4,0.2,0.4,0.4v1.7c0,0.2-0.2,0.4-0.4,0.4H37.2C37,49.4,36.8,49.3,36.8,49.1z M40.2,51.5h13.1c0.6,0,1.2,0.5,1.2,1.2
	c0,0.7-0.5,1.2-1.2,1.2H40.2c-0.6,0-1.2-0.5-1.2-1.2C39,52,39.5,51.5,40.2,51.5z M34.9,86.4c-0.4,0-0.8-0.4-0.8-0.8v-1.9
	c0-0.4,0.4-0.8,0.8-0.8h8.4c0.6,0,1-0.5,1-1s-0.5-1-1-1h-5.6l2.5-7.6c0.7-2.1,1-4.2,1-6.4v-11h11.1v11c0,2.2,0.3,4.4,1,6.4l2.5,7.6
	H48c-0.6,0-1,0.5-1,1s0.5,1,1,1h10.5c0.4,0,0.8,0.4,0.8,0.8v1.9c0,0.4-0.4,0.8-0.8,0.8c0,0,0,0,0,0L34.9,86.4
	C34.9,86.4,34.9,86.4,34.9,86.4z M62.4,91.9H31.1c-0.6,0-1-0.5-1-1.1v-1.3c0-0.6,0.5-1.1,1-1.1h31.3c0.6,0,1,0.5,1,1.1v1.3
	C63.4,91.5,63,91.9,62.4,91.9L62.4,91.9z M88,90.9c0,0.6-0.5,1.1-1,1.1H65.3c0.1-0.3,0.2-0.7,0.2-1.1v-1.3c0-0.4-0.1-0.7-0.2-1.1
	h10.2c0.6,0,1-0.5,1-1c0-0.6-0.5-1-1-1l-13.3,0c-0.4,0-0.8-0.4-0.8-0.8v-1.9c0-0.4,0.4-0.8,0.8-0.8h20.9c0.4,0,0.8,0.4,0.8,0.8v1.9
	c0,0.4-0.4,0.8-0.8,0.8h-2.8c-0.6,0-1,0.5-1,1c0,0.6,0.5,1,1,1h6.7c0.6,0,1,0.5,1,1.1V90.9z"/>
</svg>
