<?xml version="1.0" encoding="utf-8"?>
<!-- Generator: Adobe Illustrator 21.1.0, SVG Export Plug-In . SVG Version: 6.00 Build 0)  -->
<svg version="1.1" id="Layer_1" xmlns="http://www.w3.org/2000/svg" xmlns:xlink="http://www.w3.org/1999/xlink" x="0px" y="0px"
	 viewBox="0 0 118 118" style="enable-background:new 0 0 118 118;" xml:space="preserve">
<style type="text/css">
	.st0{fill:#12B779;}
</style>
<g>
	<path class="st0" d="M59,118C26.5,118,0,91.5,0,59S26.5,0,59,0s59,26.5,59,59S91.5,118,59,118z M59,2C27.6,2,2,27.6,2,59
		s25.6,57,57,57s57-25.6,57-57S90.4,2,59,2z"/>
</g>
<g>
	<g>
		<path class="st0" d="M88.6,28.5H29.4c-1.9,0-3.4,1.5-3.4,3.4c0,1.9,1.5,3.4,3.4,3.4v46.2c0,0.6,0.5,1.1,1.1,1.1h13.6l-7.6,9.4
			l1.8,1.4L47,82.6h10.8v2.5c-1.8,0.6-2.7,2.6-2.1,4.3c0.6,1.8,2.6,2.7,4.4,2.1c1.8-0.6,2.7-2.6,2.1-4.3c-0.3-1-1.1-1.7-2.1-2.1
			v-2.5H71l8.8,10.9l1.8-1.4l-7.6-9.4h13.6c0.6,0,1.1-0.5,1.1-1.1V35.3c1.9,0,3.4-1.5,3.4-3.4C92,30,90.5,28.5,88.6,28.5z M59,89.4
			c-0.6,0-1.1-0.5-1.1-1.1c0-0.6,0.5-1.1,1.1-1.1c0.6,0,1.1,0.5,1.1,1.1C60.1,88.9,59.6,89.4,59,89.4z M86.3,80.4H31.7V35.3h54.6
			V80.4z M88.6,33H29.4c-0.6,0-1.1-0.5-1.1-1.1s0.5-1.1,1.1-1.1h59.2c0.6,0,1.1,0.5,1.1,1.1S89.2,33,88.6,33z M54.4,64.6H36.2v2.3
			h18.2V64.6z M54.4,69.1H36.2v2.3h18.2V69.1z M49.9,73.6H36.2v2.3h13.7V73.6z M45.3,62.3h9.1v-2.3h-9.1V62.3z M81.8,44.3H63.6v2.3
			h18.2V44.3z M81.8,48.8H63.6v2.3h18.2V48.8z M77.2,53.3H63.6v2.3h13.7V53.3z M81.8,39.8h-9.1V42h9.1V39.8z M45.3,56.7
			c5,0,9.1-4,9.1-9c0-5-4.1-9-9.1-9s-9.1,4-9.1,9C36.2,52.7,40.3,56.7,45.3,56.7z M46.5,41c1.7,0.3,3.3,1.3,4.3,2.7l-4.4,2.2
			L46.5,41z M46,48.6l5.8-2.9c1.1,3.6-0.9,7.4-4.5,8.4c-0.6,0.2-1.3,0.3-2,0.3c-1.4,0-2.8-0.4-4-1.3L46,48.6z M41.4,42.2
			c0.8-0.6,1.8-1,2.8-1.1l0,6.2l-4.4,4.3C37.6,48.5,38.3,44.3,41.4,42.2z M63.6,70.2h-2.3v5.6h2.3V70.2z M79.5,75.9h2.3V68h-2.3
			V75.9z M65.8,75.9h2.3v-9h-2.3V75.9z M70.4,75.9h2.3V62.3h-2.3V75.9z M74.9,75.9h2.3V65.7h-2.3V75.9z M43.1,62.3v-2.3h-2.3v2.3
			H43.1z M70.4,39.8h-2.3V42h2.3V39.8z"/>
	</g>
</g>
</svg>
