<?xml version="1.0" encoding="utf-8"?>
<!-- Generator: Adobe Illustrator 21.1.0, SVG Export Plug-In . SVG Version: 6.00 Build 0)  -->
<svg version="1.1" id="Layer_1" xmlns="http://www.w3.org/2000/svg" xmlns:xlink="http://www.w3.org/1999/xlink" x="0px" y="0px"
	 viewBox="0 0 118 118" style="enable-background:new 0 0 118 118;" xml:space="preserve">
<style type="text/css">
	.st0{fill:#12B779;}
</style>
<g>
	<path class="st0" d="M59,118C26.5,118,0,91.5,0,59S26.5,0,59,0s59,26.5,59,59S91.5,118,59,118z M59,2C27.6,2,2,27.6,2,59
		s25.6,57,57,57s57-25.6,57-57S90.4,2,59,2z"/>
</g>
<g>
	<g>
		<path class="st0" d="M95.2,54.6L83,38.8c-0.5-0.6-1.3-0.7-1.9-0.3l-7.9,5H62.9c-0.1,0-0.3,0-0.4,0.1l-8,2.3l-8.3-2.3l-8-5.1
			c-0.6-0.4-1.4-0.3-1.9,0.3L22.8,55.5c-0.5,0.6-0.4,1.5,0.2,2l7.1,6.1l6.4,8.6c-1.9,2-1.8,5.1,0.1,7c0.9,0.9,1.9,1.3,3.1,1.5
			c0,0.3-0.1,0.5-0.1,0.8c0,1.4,0.5,2.6,1.5,3.6c1,1,2.2,1.5,3.6,1.5c0,0,0,0,0.1,0c0,0,0,0.1,0,0.1c0,1.4,0.5,2.6,1.5,3.6
			c1,1,2.2,1.5,3.6,1.5c0.3,0,0.5,0,0.8-0.1c0.1,1.1,0.6,2.2,1.5,3.1c1,1,2.3,1.5,3.6,1.5c1.3,0,2.6-0.5,3.6-1.5l0.8-0.8l0.3,0.3
			c1,0.9,2.2,1.4,3.5,1.4c1.3,0,2.6-0.5,3.6-1.5c1-1,1.5-2.3,1.5-3.7c1.3,0,2.7-0.5,3.7-1.5c1-1,1.5-2.3,1.5-3.7
			c1.4,0,2.7-0.5,3.7-1.5c1-1,1.5-2.3,1.5-3.7c1.3,0,2.7-0.5,3.7-1.5c1.7-1.7,1.9-4.4,0.7-6.3l4.6-9.7l7-6
			C95.6,56.1,95.7,55.2,95.2,54.6z M25.9,56.2l11.8-14.7l5.8,3.7L31,60.5L25.9,56.2z M38.6,77.1c-0.9-0.9-0.9-2.2,0-3.1l1.7-1.7
			c0.1-0.1,0.1-0.1,0.2-0.1c0.3-0.3,0.8-0.4,1.2-0.5c0,0,0,0,0,0c0.1,0,0.1,0,0.2,0c0.6,0,1.2,0.3,1.6,0.7c0.8,0.9,0.8,2.3-0.1,3.1
			l-1.7,1.7C40.8,78,39.4,78,38.6,77.1z M44.6,83.6c-0.6,0-1.1-0.2-1.6-0.6c-0.4-0.4-0.6-1-0.6-1.6c0-0.6,0.2-1.1,0.6-1.6l3.4-3.4
			c0.6-0.6,1.7-0.8,2.5-0.4c0.9,0.4,1.3,1.3,1.2,2.3c-0.1,0.5-0.3,1-0.7,1.3l-3.3,3.3C45.8,83.3,45.2,83.6,44.6,83.6z M51.3,88.1
			c-0.4,0.4-1,0.6-1.6,0.6c-0.6,0-1.1-0.2-1.6-0.6c-0.4-0.4-0.6-1-0.6-1.6c0-0.6,0.2-1.1,0.6-1.6l3.4-3.4c0.7-0.7,1.8-0.8,2.7-0.3
			c0.8,0.5,1.2,1.3,1,2.2c-0.1,0.5-0.3,0.9-0.7,1.3L51.3,88.1z M58.8,90.9l-1.7,1.7c-0.9,0.9-2.2,0.9-3.1,0c-0.9-0.9-0.9-2.2,0-3.1
			l1.7-1.7c0.1-0.1,0.1-0.1,0.2-0.1c0,0,0,0,0,0c0.3-0.2,0.6-0.4,1-0.5c0,0,0,0,0,0c0.1,0,0.1,0,0.2,0c0,0,0.1,0,0.1,0
			c0.1,0,0.1,0,0.2,0c0.6,0,1.2,0.3,1.6,0.7c0.1,0.1,0.1,0.1,0.1,0.2C59.7,88.8,59.6,90.1,58.8,90.9z M80.7,76.6
			c-0.9,0.9-2.2,0.9-3.1,0c0,0-0.1-0.1-0.1-0.1l-9.2-9.3c-0.6-0.6-1.5-0.6-2,0c-0.6,0.6-0.6,1.5,0,2l9.3,9.4c0,0,0,0,0,0
			c0.9,0.9,0.9,2.2,0,3.1c-0.4,0.4-1,0.6-1.6,0.6c-0.6,0-1.1-0.2-1.6-0.6l-6.2-6.3c-0.6-0.6-1.5-0.6-2,0c-0.6,0.6-0.6,1.5,0,2
			l6.1,6.2c0,0,0.1,0.1,0.1,0.1c0.9,0.9,0.9,2.2,0,3.1c-0.9,0.9-2.3,0.9-3.1,0l-3.4-3.4c-0.6-0.6-1.5-0.6-2,0c-0.6,0.6-0.6,1.5,0,2
			l3.3,3.3c0,0,0.1,0.1,0.1,0.1c0.9,0.9,0.9,2.2,0,3.1c-0.9,0.9-2.2,0.9-3.1,0c-0.1-0.1-0.2-0.2-0.3-0.3c-0.1-0.1-0.1-0.1-0.1-0.2
			c0-0.1,0.1-0.2,0.2-0.3c0.1-0.1,0.1-0.3,0.1-0.4c0.2-0.7,0.3-1.5,0.2-2.2c-0.2-1.4-1-2.7-2.1-3.5c-0.6-0.4-1.4-0.7-2.1-0.8
			c0.4-1.6-0.1-3.4-1.2-4.6c-0.9-1-2.2-1.6-3.6-1.6c-0.1,0-0.1,0-0.2,0c0-1.3-0.4-2.6-1.4-3.6c-0.9-1-2.2-1.6-3.6-1.6
			c-0.4,0-0.8,0-1.2,0.1c-0.2-1.2-0.8-2.3-1.7-3.1c-0.9-0.8-2-1.2-3.2-1.2c-1.3,0-2.5,0.4-3.5,1.3l-5.5-7.5l13.2-16.1l4.2,1.2
			l-5.5,9.7c-0.7,1.2-0.8,2.5-0.5,3.8c0.4,1.3,1.2,2.4,2.4,3.1c0.1,0,0.1,0.1,0.2,0.1c0,0,0,0,0,0c0.2,0.1,0.4,0.2,0.6,0.3
			c1,0.3,2,0.4,3,0.1c1.3-0.4,2.4-1.2,3.1-2.4l3.6-6.3l6.4,0.5l17,17C81.6,74.4,81.6,75.8,80.7,76.6z M81.3,70.1l-16-16
			c0,0-0.1-0.1-0.1-0.1c-0.2-0.2-0.5-0.3-0.8-0.3l-7.8-0.6c-0.5,0-1.1,0.3-1.3,0.7l-4,7.1c-0.3,0.5-0.8,0.9-1.3,1
			c-0.6,0.2-1.2,0.1-1.7-0.2c-0.5-0.3-0.9-0.8-1-1.3c-0.2-0.6-0.1-1.2,0.2-1.7l5.4-9.5l2.2-0.6c0,0,0,0,0,0l8.1-2.3h9.8l12.3,15.6
			L81.3,70.1z M87.1,59.6L75.7,45.2l5.8-3.7l10.6,13.8L87.1,59.6z M66.7,40.8c0.4,0,0.7-0.1,1-0.4l9.8-9.8c0.6-0.6,0.6-1.5,0-2
			c-0.6-0.6-1.5-0.6-2,0l-9.8,9.8c-0.6,0.6-0.6,1.5,0,2C66,40.6,66.4,40.8,66.7,40.8z M50.3,40.3c0.3,0.3,0.6,0.4,1,0.4
			c0.4,0,0.7-0.1,1-0.4c0.6-0.6,0.6-1.5,0-2l-9.8-9.8c-0.6-0.6-1.5-0.6-2,0c-0.6,0.6-0.6,1.5,0,2L50.3,40.3z M59,40.8
			c0.8,0,1.4-0.6,1.4-1.4v-8.1c0-0.8-0.6-1.4-1.4-1.4c-0.8,0-1.4,0.6-1.4,1.4v8.1C57.6,40.1,58.2,40.8,59,40.8z M59.1,26.9
			c0.6,0,1.1-0.4,1.3-1c0.2-0.6,0-1.2-0.5-1.6c-0.5-0.4-1.2-0.4-1.7-0.1c-0.6,0.4-0.8,1.1-0.5,1.7C57.9,26.6,58.5,27,59.1,26.9z"/>
	</g>
</g>
</svg>
