<?xml version="1.0" encoding="utf-8"?>
<!-- Generator: Adobe Illustrator 21.1.0, SVG Export Plug-In . SVG Version: 6.00 Build 0)  -->
<svg version="1.1" id="Layer_1" xmlns="http://www.w3.org/2000/svg" xmlns:xlink="http://www.w3.org/1999/xlink" x="0px" y="0px"
	 viewBox="0 0 118 118" style="enable-background:new 0 0 118 118;" xml:space="preserve">
<style type="text/css">
	.st0{fill:#12B779;}
</style>
<g>
	<path class="st0" d="M59,118C26.5,118,0,91.5,0,59S26.5,0,59,0s59,26.5,59,59S91.5,118,59,118z M59,2C27.6,2,2,27.6,2,59
		s25.6,57,57,57s57-25.6,57-57S90.4,2,59,2z"/>
</g>
<g>
	<g>
		<path class="st0" d="M60,28H31.1c-1.7,0-3.1,1.4-3.1,3.1v55.8c0,1.7,1.4,3.1,3.1,3.1H60c1.7,0,3.1-1.4,3.1-3.1V31.1
			C63.1,29.4,61.7,28,60,28z M55.6,30.1l-0.5,2.1H36l-0.5-2.1H55.6z M61.1,86.9c0,0.6-0.5,1-1,1H31.1c-0.6,0-1-0.5-1-1V31.1
			c0-0.6,0.5-1,1-1h2.3l0.8,3.3c0.1,0.5,0.5,0.8,1,0.8h20.7c0.5,0,0.9-0.3,1-0.8l0.8-3.3H60c0.6,0,1,0.5,1,1V86.9z M34.2,78.6h-2.1
			v6.2c0,0.6,0.5,1,1,1h6.2v-2.1h-5.2V78.6z M34.2,74.5h-2.1v2.1h2.1V74.5z M46.6,58v-1.2c2.2-0.6,3.5-2.8,3-5
			c-0.5-1.8-2.1-3.1-4-3.1c-1.1,0-2.1-0.9-2.1-2.1c0-1.1,0.9-2.1,2.1-2.1s2.1,0.9,2.1,2.1h2.1c0-1.9-1.3-3.5-3.1-4v-1.2h-2.1v1.2
			c-2.2,0.6-3.5,2.8-3,5c0.5,1.8,2.1,3.1,4,3.1c1.1,0,2.1,0.9,2.1,2.1c0,1.1-0.9,2.1-2.1,2.1s-2.1-0.9-2.1-2.1h-2.1
			c0,1.9,1.3,3.5,3.1,4V58H46.6z M89,50.7c0.6,0,1-0.5,1-1V35.2c0-0.6-0.5-1-1-1H66.2c-0.6,0-1,0.5-1,1v14.5c0,0.6,0.5,1,1,1h5.2
			v9.4c-2.4,0.5-4.1,2.6-4.1,5.1v8.3c0,0.1,0,0.2,0.1,0.4L71,83.9c-0.4,0.2-0.6,0.5-0.6,1V89c0,0.6,0.5,1,1,1h14.5c0.6,0,1-0.5,1-1
			v-4.1c0-0.4-0.2-0.8-0.6-1l3.7-10.1c0-0.1,0.1-0.2,0.1-0.4v-9.3c0-1.7-1.4-3.1-3.1-3.1c-0.4,0-0.8,0.1-1.2,0.2
			c-0.1-0.5-0.4-1-0.8-1.4c-0.6-0.6-1.4-0.9-2.2-0.9c-0.4,0-0.8,0.1-1.2,0.2c-0.4-1.6-2.1-2.6-3.7-2.2c-0.1,0-0.2,0.1-0.3,0.1v-6.4
			H89z M84.8,87.9H72.4v-2.1h12.4V87.9z M78.6,59c0.6,0,1,0.5,1,1v8.3h2.1v-6.2c0-0.6,0.5-1,1-1c0.3,0,0.5,0.1,0.7,0.3
			c0.2,0.2,0.3,0.4,0.3,0.7v6.2h2.1v-4.1c0-0.6,0.5-1,1-1c0.3,0,0.5,0.1,0.7,0.3c0.2,0.2,0.3,0.4,0.3,0.7v9.1l-3.8,10.5h-11
			l-3.8-10.5v-8.1c0-1.3,0.8-2.5,2.1-2.9v6h2.1V47.6c0-0.6,0.5-1,1-1c0.6,0,1,0.5,1,1v20.7h2.1V60C77.6,59.5,78.1,59,78.6,59z
			 M74.5,44.5c-1.7,0-3.1,1.4-3.1,3.1v1h-4.1V36.3h20.7v12.4H77.6v-1C77.6,45.9,76.2,44.5,74.5,44.5z M56.9,63.1h-1V60
			c0-0.6-0.5-1-1-1h-2.8c5.1-3.6,6.4-10.7,2.8-15.8c-3.6-5.1-10.7-6.4-15.8-2.8C33.9,44,32.7,51,36.2,56.2c0.8,1.1,1.7,2,2.8,2.8
			h-4.9c-0.6,0-1,0.5-1,1v4.1c0,0.6,0.5,1,1,1h1v3.1c0,0.6,0.5,1,1,1h20.7c0.6,0,1-0.5,1-1v-4.1C58,63.6,57.5,63.1,56.9,63.1z
			 M36.3,49.7c0-5.1,4.2-9.3,9.3-9.3c5.1,0,9.3,4.2,9.3,9.3c0,5.1-4.2,9.3-9.3,9.3C40.4,59,36.3,54.8,36.3,49.7z M35.2,63.1v-2.1
			h2.1v2.1H35.2z M39.4,67.3h-2.1v-2.1h2.1V67.3z M39.4,61.1h2.1v2.1h-2.1V61.1z M43.5,67.3h-2.1v-2.1h2.1V67.3z M43.5,61.1h2.1v2.1
			h-2.1V61.1z M47.6,67.3h-2.1v-2.1h2.1V67.3z M47.6,61.1h2.1v2.1h-2.1V61.1z M51.8,67.3h-2.1v-2.1h2.1V67.3z M51.8,61.1h2.1v2.1
			h-2.1V61.1z M55.9,67.3h-2.1v-2.1h2.1V67.3z"/>
	</g>
</g>
</svg>
