<?xml version="1.0" encoding="utf-8"?>
<!-- Generator: Adobe Illustrator 21.1.0, SVG Export Plug-In . SVG Version: 6.00 Build 0)  -->
<svg version="1.1" id="Layer_1" xmlns="http://www.w3.org/2000/svg" xmlns:xlink="http://www.w3.org/1999/xlink" x="0px" y="0px"
	 viewBox="0 0 65.5 80.5" style="enable-background:new 0 0 65.5 80.5;" xml:space="preserve">
<style type="text/css">
	.st0{fill:#FFFFFF;}
</style>
<path class="st0" d="M35.7,57.5c-3.7,3.5-8.5,6.5-13.3,8.3c-2.7,1-5.7,1.8-8.6,2.3c-1.5,0.2-3.1,0.3-4.6,0.5C8.2,68.8,7,69.3,6,69.3
	c0.2-1.1,8.2-13.3,1.7-11.7C5.6,58.1,5,62,4.3,63.7c-1,2.5-2.5,5.1-3,7.7c-0.5,3,2.7,3.7,5,4.7c2.7,1.1,5.4,2.4,8.3,3.2
	c1.8,0.5,4.1,0,2.1-2c-1.7-1.7-4.8-2.1-6.3-3.8c1.2-0.4,3,0,4.3-0.2c1.8-0.3,3.6-0.8,5.3-1.3c2.4-0.7,4.8-1.7,7.1-2.9
	c5.4-2.8,9.9-6.7,14.5-10.6c7.8-6.6,14-16.3,17.9-25.8C61.9,27,63.1,21,63.9,15c0.2-1.4,1.2-14.7-1.6-13.4c-0.8,0.4-0.4,4.1-0.4,5
	c-0.2,3-0.6,6-1.1,9c-1,5.8-2.4,11.6-4.9,16.9C51.6,41.9,44.1,51.5,35.7,57.5C35.1,58,38.7,55.3,35.7,57.5z"/>
</svg>
