<?xml version="1.0" encoding="utf-8"?>
<!-- Generator: Adobe Illustrator 21.1.0, SVG Export Plug-In . SVG Version: 6.00 Build 0)  -->
<svg version="1.1" id="Layer_1" xmlns="http://www.w3.org/2000/svg" xmlns:xlink="http://www.w3.org/1999/xlink" x="0px" y="0px"
	 viewBox="0 0 65.5 80.5" style="enable-background:new 0 0 65.5 80.5;" xml:space="preserve">
<style type="text/css">
	.st0{fill:#FFFFFF;}
</style>
<path class="st0" d="M29.8,57.5c-8.4-6.1-15.9-15.6-20.3-25c-2.5-5.3-3.9-11.1-4.9-16.9c-0.5-3-0.9-6-1.1-9C3.5,5.7,4,2,3.2,1.6
	C0.4,0.2,1.4,13.5,1.6,15C2.5,21,3.6,27,6,32.7C9.9,42.1,16,51.8,23.9,58.5c4.6,3.9,9.1,7.8,14.5,10.6c2.3,1.2,4.6,2.2,7.1,2.9
	c1.7,0.5,3.5,1,5.3,1.3c1.3,0.2,3.1-0.2,4.3,0.2c-1.5,1.7-4.6,2.1-6.3,3.8c-2,2,0.3,2.5,2.1,2c2.9-0.8,5.6-2.1,8.3-3.2
	c2.3-1,5.5-1.6,5-4.7c-0.5-2.7-2-5.2-3-7.7c-0.7-1.7-1.3-5.6-3.4-6.1c-6.5-1.6,1.6,10.6,1.7,11.7c-1.1,0-2.2-0.5-3.3-0.7
	c-1.5-0.2-3.1-0.3-4.6-0.5c-2.9-0.5-5.8-1.3-8.6-2.3C38.4,64.1,33.5,61,29.8,57.5C26.8,55.3,30.4,58,29.8,57.5z"/>
</svg>
